<svg xmlns="http://www.w3.org/2000/svg" viewBox="0 0 40 40" width="100" height="100"><path fill="#dff0fe" d="M2.5 1.5H28.5V33.5H2.5z"/><path fill="#4788c7" d="M28,2v31H3V2H28 M29,1H2v33h27V1L29,1z"/><path fill="#98ccfd" d="M7 3H8V4H7zM7 5H8V6H7zM7 7H8V8H7zM7 9H8V10H7zM7 11H8V12H7zM7 13H8V14H7zM7 15H8V16H7zM7 17H8V18H7zM11 3H12V4H11zM11 7H12V8H11zM11 9H12V10H11zM11 11H12V12H11zM11 13H12V14H11zM11 15H12V16H11zM11 17H12V18H11zM15 3H16V4H15zM15 7H16V8H15zM15 9H16V10H15zM15 11H16V12H15zM15 13H16V14H15zM15 15H16V16H15zM15 17H16V18H15zM19 3H20V4H19zM19 7H20V8H19zM19 9H20V10H19zM19 11H20V12H19zM19 13H20V14H19zM19 15H20V16H19zM19 17H20V18H19zM23 3H24V4H23zM23 7H24V8H23zM23 9H24V10H23zM23 11H24V12H23zM23 13H24V14H23zM23 15H24V16H23zM23 17H24V18H23zM24 19H25V20H24zM5 5H6V6H5zM13 5H14V6H13zM11 5H12V6H11zM9 5H10V6H9zM19 5H20V6H19zM17 5H18V6H17zM15 5H16V6H15zM25 5H26V6H25zM23 5H24V6H23zM21 5H22V6H21zM7 19H8V20H7zM7 21H8V22H7zM11 19H12V20H11zM15 19H16V20H15zM19 19H20V20H19zM23 19H24V20H23zM5 21H6V22H5zM13 21H14V22H13zM11 21H12V22H11zM9 21H10V22H9zM19 21H20V22H19zM17 21H18V22H17zM15 21H16V22H15zM25 21H26V22H25zM23 21H24V22H23zM21 21H22V22H21zM5 9H6V10H5zM13 9H14V10H13zM9 9H10V10H9zM17 9H18V10H17zM25 9H26V10H25zM21 9H22V10H21zM5 13H6V14H5zM13 13H14V14H13zM9 13H10V14H9zM17 13H18V14H17zM25 13H26V14H25zM21 13H22V14H21zM5 17H6V18H5zM13 17H14V18H13zM9 17H10V18H9zM17 17H18V18H17zM25 17H26V18H25zM21 17H22V18H21zM7 23H8V24H7zM7 25H8V26H7zM11 23H12V24H11zM15 23H16V24H15zM19 23H20V24H19zM23 23H24V24H23zM5 25H6V26H5zM13 25H14V26H13zM11 25H12V26H11zM9 25H10V26H9zM19 25H20V26H19zM17 25H18V26H17zM15 25H16V26H15zM25 25H26V26H25zM23 25H24V26H23zM21 25H22V26H21zM7 27H8V28H7zM7 29H8V30H7zM11 27H12V28H11zM15 27H16V28H15zM19 27H20V28H19zM23 27H24V28H23zM7 31H8V32H7zM11 31H12V32H11zM15 31H16V32H15zM19 31H20V32H19zM23 31H24V32H23zM5 29H6V30H5zM13 29H14V30H13zM11 29H12V30H11zM9 29H10V30H9zM19 29H20V30H19zM17 29H18V30H17zM15 29H16V30H15zM25 29H26V30H25zM23 29H24V30H23zM21 29H22V30H21z"/><path fill="#98ccfd" d="M10.858 21.05H38.141999999999996V29.950000000000003H10.858z" transform="rotate(-45.001 24.5 25.5)"/><path fill="#4788c7" d="M31,13.414L36.586,19L18,37.586L12.414,32L31,13.414 M31,12L11,32l7,7l20-20L31,12L31,12z"/><g><path fill="none" stroke="#4788c7" stroke-linecap="round" stroke-miterlimit="10" d="M22.5 23.5L21.5 22.5M17.5 28.5L16.5 27.5M27.5 18.5L26.5 17.5"/></g><g><path fill="none" stroke="#4788c7" stroke-linecap="round" stroke-miterlimit="10" d="M21.5 27.5L19 25M16.5 32.5L14 30M31.5 17.5L29 15M26.5 22.5L24 20"/></g></svg>